<svg width="95" height="95" viewBox="0 0 95 95" fill="none" xmlns="http://www.w3.org/2000/svg">
<g opacity="0.12">
<path d="M71.7118 47.8556C80.527 47.8556 86.4674 54.0984 86.4674 63.3483C86.4674 71.672 79.6398 78.6065 70.3923 78.6065C60.2633 78.6065 52.7788 70.2828 52.7788 57.5685C52.7788 28.6699 73.4748 17.1104 86.4674 15.7213V28.4355C77.6578 30.0534 67.7534 39.0688 67.3098 49.0161C67.7534 48.7875 69.5108 47.8556 71.7118 47.8556ZM26.7994 47.8556C35.6033 47.8556 41.5493 54.0984 41.5493 63.3483C41.5493 71.672 34.7218 78.6065 25.4743 78.6065C15.3453 78.6065 7.86079 70.2828 7.86079 57.5685C7.86079 28.6699 28.5568 17.1104 41.5493 15.7213V28.4355C32.7398 30.0534 22.8353 39.0688 22.3918 49.0161C22.8353 48.7875 24.5928 47.8556 26.7994 47.8556Z" fill="#050505"/>
</g>
</svg>
