<?xml version="1.0" encoding="UTF-8"?>
<!DOCTYPE svg PUBLIC "-//W3C//DTD SVG 1.1//EN" "http://www.w3.org/Graphics/SVG/1.1/DTD/svg11.dtd">
<svg xmlns="http://www.w3.org/2000/svg" version="1.1" width="100px" height="100px" style="shape-rendering:geometricPrecision; text-rendering:geometricPrecision; image-rendering:optimizeQuality; fill-rule:evenodd; clip-rule:evenodd" xmlns:xlink="http://www.w3.org/1999/xlink">
<g><path style="opacity:1" fill="#045685" d="M 99.5,70.5 C 99.5,71.8333 99.5,73.1667 99.5,74.5C 86.4957,74.6666 73.4957,74.4999 60.5,74C 58.3651,73.2411 57.0318,71.7411 56.5,69.5C 51.8333,68.1667 47.1667,68.1667 42.5,69.5C 41.9682,71.7411 40.6349,73.2411 38.5,74C 25.5043,74.4999 12.5043,74.6666 -0.5,74.5C -0.5,73.1667 -0.5,71.8333 -0.5,70.5C 9.16667,70.5 18.8333,70.5 28.5,70.5C 28.3385,68.1756 27.1718,66.5089 25,65.5C 24.3333,56.1667 24.3333,46.8333 25,37.5C 25.5,37 26,36.5 26.5,36C 35.5,35.3333 44.5,35.3333 53.5,36C 55.5848,38.4194 56.5848,41.2528 56.5,44.5C 60.226,44.1774 63.8927,44.5108 67.5,45.5C 70.1955,49.0296 72.6955,52.6963 75,56.5C 75.6667,60.1667 75.6667,63.8333 75,67.5C 73.4905,68.0897 71.9905,68.7564 70.5,69.5C 80.1437,70.4984 89.8104,70.8318 99.5,70.5 Z M 60.5,64.5 C 53.1667,64.5 45.8333,64.5 38.5,64.5C 39.6843,63.3121 39.6843,62.1455 38.5,61C 35.8333,60.3333 33.1667,60.3333 30.5,61C 29.2986,61.9025 28.4652,63.0692 28,64.5C 27.6667,63.8333 27.3333,63.1667 27,62.5C 26.1999,54.7837 26.3666,47.1171 27.5,39.5C 28.0253,38.8076 28.6919,38.3076 29.5,38C 36.8834,37.2015 44.2167,37.3682 51.5,38.5C 52.1924,39.0253 52.6924,39.6919 53,40.5C 53.1687,47.8559 53.6687,55.1892 54.5,62.5C 55.4948,57.2079 55.8282,51.8746 55.5,46.5C 59.0479,46.0949 62.3812,46.5949 65.5,48C 63.5273,48.4955 61.5273,48.6621 59.5,48.5C 59.5,51.5 59.5,54.5 59.5,57.5C 63.8333,57.5 68.1667,57.5 72.5,57.5C 72.8174,60.5719 72.4841,63.5719 71.5,66.5C 69.973,60.8098 66.3063,58.9764 60.5,61C 59.3157,62.1455 59.3157,63.3121 60.5,64.5 Z M 62.5,50.5 C 64.1992,50.3398 65.8659,50.5065 67.5,51C 68.2567,52.5122 69.2567,53.8455 70.5,55C 67.854,55.4974 65.1873,55.6641 62.5,55.5C 62.5,53.8333 62.5,52.1667 62.5,50.5 Z M 38.5,64.5 C 38.1589,69.0276 35.9922,70.3609 32,68.5C 31.2797,66.8876 31.4464,65.3876 32.5,64C 34.5454,63.5099 36.5454,63.6765 38.5,64.5 Z M 60.5,64.5 C 62.4546,63.6765 64.4546,63.5099 66.5,64C 68.5,68.3333 67.1667,70 62.5,69C 61.4178,67.6703 60.7512,66.1703 60.5,64.5 Z"/></g>
</svg>
