<svg width="158" height="41" viewBox="0 0 158 41" fill="none" xmlns="http://www.w3.org/2000/svg">
<path d="M6.7046 13.1021C6.75501 13.0769 7.05743 13.0643 7.61188 13.0643C8.61995 13.0895 9.50202 13.2785 10.2581 13.6313L10.7117 13.8959L11.3166 13.4801L11.8836 13.0643H12.2238C12.4507 13.0643 12.6019 13.1021 12.6775 13.1777L12.7909 13.2911V15.7105V18.1299L12.6775 18.2433L12.5641 18.3567H11.8458H11.1276L11.0141 18.2433C10.9385 18.1677 10.9007 18.0039 10.9007 17.7518C10.7747 16.1641 9.95566 15.1812 8.44354 14.8032C7.8891 14.7024 7.19604 14.6898 6.36438 14.7654C6.28877 14.7906 6.22577 14.8032 6.17536 14.8032C4.91526 15.0804 4.24741 15.7357 4.1718 16.769C4.1214 17.525 4.47423 18.1299 5.23029 18.5835C5.60832 18.8103 6.40218 19.0497 7.61188 19.3018C8.67036 19.5034 9.25 19.6294 9.35081 19.6798C10.9889 20.083 12.2112 20.9777 13.0177 22.3638C13.0681 22.4646 13.1185 22.5528 13.1689 22.6284C13.5217 23.3593 13.7108 24.0523 13.736 24.7076C13.7864 26.1945 13.4209 27.4168 12.6397 28.3745C12.0852 29.1305 11.2662 29.685 10.1825 30.0378C8.69556 30.5418 7.22124 30.5922 5.75953 30.189C5.02867 29.9622 4.43642 29.6598 3.98279 29.2817L3.79377 29.1683L3.11332 29.6976C2.45807 30.1764 2.06744 30.4158 1.94143 30.4158C1.71461 30.4158 1.5634 30.378 1.48779 30.3024L1.37438 30.189V27.316C1.37438 25.2746 1.43739 24.2161 1.5634 24.1405C1.6138 24.1153 1.87842 24.1027 2.35726 24.1027C2.8865 24.1027 3.17633 24.1657 3.22673 24.2917C3.25193 24.3422 3.28973 24.4808 3.34014 24.7076C4.071 27.6562 5.74693 28.9415 8.36793 28.5635C9.67844 28.4123 10.4975 27.82 10.8251 26.7867C10.8755 26.6355 10.9007 26.3835 10.9007 26.0307C10.9007 25.6779 10.8755 25.4258 10.8251 25.2746C10.6739 24.7706 10.3085 24.317 9.72884 23.9137C9.32561 23.6365 8.50655 23.3719 7.27165 23.1199C5.86034 22.8678 4.85226 22.578 4.24741 22.2504C3.66776 21.9732 3.16372 21.6203 2.73529 21.1919C2.35726 20.8139 2.04224 20.3728 1.79022 19.8688C1.5382 19.3396 1.39958 18.7851 1.37438 18.2055C1.34918 17.4494 1.51299 16.6681 1.86582 15.8617C2.09264 15.408 2.35726 15.03 2.65968 14.7276C3.44095 13.8707 4.62544 13.3415 6.21317 13.1399C6.33917 13.1147 6.50299 13.1021 6.7046 13.1021ZM15.6849 14.7654V13.7069H15.9495L17.8775 13.7825C18.9863 13.8077 20.1456 13.8077 21.3553 13.7825L23.4345 13.7069H23.6991V14.7654V15.8239H23.2077C22.5524 15.8491 22.187 15.9373 22.1114 16.0885C22.0862 16.1389 22.5776 17.651 23.5857 20.6249L25.1356 25.0478C25.1356 25.0226 25.5515 23.7877 26.3831 21.3431L27.6306 17.714L27.366 16.9202C27.1644 16.3657 27.0384 16.0759 26.988 16.0507C26.862 15.9247 26.4209 15.8491 25.6649 15.8239H24.7954V14.7654V13.7069H25.0222L26.6477 13.7825C27.6054 13.8077 28.7395 13.8077 30.05 13.7825C31.5369 13.7321 32.293 13.7069 32.3182 13.7069H32.6206V14.7654V15.8239H31.978C30.9447 15.8743 30.428 15.9751 30.428 16.1263L33.6413 25.5014L36.5143 17.147L36.4765 16.8824V16.8446C36.3253 16.2901 35.7709 15.9499 34.8132 15.8239C34.7628 15.8239 34.7124 15.8239 34.662 15.8239H34.3218V14.7654V13.7069H34.6242L36.7033 13.7825C37.9382 13.8077 38.9841 13.8077 39.841 13.7825L41.3531 13.7069H41.5799V14.7654V15.8239H41.3531C40.6474 15.8239 40.0174 15.9499 39.463 16.2019C39.0597 16.4035 38.7699 16.6807 38.5935 17.0336C38.5431 17.084 37.7744 19.2892 36.2875 23.6491C34.8006 27.9586 34.0445 30.126 34.0193 30.1512C33.9185 30.3024 33.6413 30.3906 33.1877 30.4158C33.1625 30.4158 33.1121 30.4158 33.0364 30.4158C32.4316 30.4158 32.0662 30.3402 31.9402 30.189C31.8646 30.1134 30.7683 26.938 28.6513 20.6627L27.0258 25.3124C25.9673 28.4627 25.4002 30.0756 25.3246 30.1512C25.249 30.3276 24.8836 30.4158 24.2284 30.4158C23.6739 30.3906 23.3463 30.3024 23.2455 30.1512C23.2203 30.126 22.4012 27.7822 20.7883 23.1199C19.2258 18.5079 18.4193 16.1767 18.3689 16.1263C18.2429 15.9499 17.6884 15.8491 16.7056 15.8239H15.6849V14.7654ZM46.5956 4.78541C47.4777 4.58379 48.2463 4.79801 48.9016 5.42806C49.3804 5.9573 49.6199 6.53695 49.6199 7.167C49.6199 7.57023 49.5316 7.94826 49.3552 8.30109C48.9016 9.15796 48.1581 9.61159 47.1249 9.66199C46.1672 9.66199 45.4489 9.23356 44.9701 8.37669C44.7685 7.99866 44.6677 7.59543 44.6677 7.167C44.6677 6.78897 44.7559 6.42354 44.9323 6.07071C45.2599 5.36506 45.8144 4.93662 46.5956 4.78541ZM46.331 13.5179C48.448 13.3667 49.456 13.2911 49.3552 13.2911H49.4686V20.4358C49.4686 25.199 49.4938 27.6058 49.5442 27.6562C49.6199 27.7318 49.6829 27.7696 49.7333 27.7696C49.8845 27.8452 50.4389 27.883 51.3966 27.883H52.1148V28.9415V30H51.8124L49.6577 29.9244C48.3976 29.8992 47.0997 29.8992 45.7639 29.9244C44.2266 29.9748 43.4454 30 43.4202 30H43.0799V28.9415V27.883H43.8738C45.1843 27.883 45.89 27.7948 45.9908 27.6184C46.016 27.5932 46.0286 25.8543 46.0286 22.4016C46.0286 18.7725 45.9782 16.832 45.8774 16.5799C45.8017 16.3531 45.6505 16.1893 45.4237 16.0885C45.0709 15.9121 44.4786 15.8239 43.647 15.8239H43.2311V14.7654V13.7069H43.3068L46.331 13.5179ZM63.3166 3.3867C63.9971 3.3363 64.5011 3.3489 64.8288 3.4245C65.9376 3.65132 66.6811 4.33177 67.0591 5.46586C67.1599 5.74309 67.2229 6.03291 67.2481 6.33533C67.2986 7.01579 67.0969 7.58283 66.6433 8.03647C66.2401 8.4145 65.736 8.60351 65.1312 8.60351L64.6019 8.56571H64.5641C63.5813 8.26328 63.0646 7.60803 63.0142 6.59995C63.0142 6.52435 63.0142 6.44874 63.0142 6.37314C63.0394 6.02031 63.1528 5.66748 63.3544 5.31465L63.4678 5.12564H63.2032C62.4472 5.20124 61.7793 5.52887 61.1997 6.10851C60.5444 6.78897 60.1286 7.60803 59.9522 8.56571C59.927 8.71692 59.9018 9.63679 59.8766 11.3253V13.7069H61.8801H63.8837V14.7654V15.8239H61.9557H59.99V21.6833C59.99 25.6149 60.0026 27.5932 60.0278 27.6184C60.1034 27.7696 60.8342 27.8578 62.2204 27.883H63.6569V28.9415V30H63.3166C63.3418 30 62.4472 29.9748 60.6326 29.9244C59.0701 29.8992 57.621 29.8992 56.2853 29.9244C54.748 29.9748 53.9667 30 53.9415 30H53.6013V28.9415V27.883H54.3951C55.7056 27.883 56.4113 27.7948 56.5121 27.6184C56.5373 27.5932 56.5499 25.6149 56.5499 21.6833V15.8239H55.3024H54.0549V14.7654V13.7069H55.3024H56.5499V11.3253C56.5751 9.58639 56.6381 8.56571 56.7389 8.26328C56.7641 8.21288 56.8019 8.11207 56.8523 7.96086C57.4068 6.19672 58.6921 4.89882 60.7082 4.06715C61.5399 3.71432 62.4094 3.48751 63.3166 3.3867ZM69.5036 7.01579V6.75117H70.4487H71.3938V10.229V13.7069H73.851H76.3082V14.7654V15.8239H73.851H71.3938V20.8517C71.3938 24.2791 71.4064 26.0685 71.4316 26.2197C71.5828 27.5302 72.049 28.2737 72.8303 28.4501C73.7376 28.6769 74.3928 28.2359 74.796 27.127C74.9473 26.6985 75.0355 25.8795 75.0607 24.6698V23.1577H76.0057H76.9508V24.6698C76.9256 25.7031 76.8878 26.3205 76.8374 26.5221C76.4846 28.1603 75.6403 29.3195 74.3046 30C73.4981 30.3528 72.6665 30.4788 71.8096 30.378C69.8439 30.1512 68.609 29.1305 68.1049 27.316C67.9537 26.8372 67.8781 25.9551 67.8781 24.6698C67.8781 24.9722 67.8655 23.7751 67.8403 21.0785V15.8239H66.4416H65.0429V14.9544V14.0471H65.3453C66.1266 13.9715 66.8574 13.6187 67.5379 12.9887C68.0923 12.4342 68.5586 11.653 68.9366 10.6449C69.3146 9.46038 69.5036 8.25068 69.5036 7.01579ZM82.9869 3.99155C85.1543 3.84034 86.1875 3.76473 86.0867 3.76473H86.2379V15.6727C86.2379 23.6113 86.2505 27.5932 86.2757 27.6184C86.3766 27.7948 87.0822 27.883 88.3927 27.883H89.1866V28.9415V30H88.8463L86.5026 29.9244C85.1669 29.8992 83.8312 29.8992 82.4954 29.9244L80.1895 30H79.8492V28.9415V27.883H80.6431C81.9536 27.883 82.6593 27.7948 82.7601 27.6184V7.58283C82.6593 6.97798 82.3442 6.59995 81.815 6.44874C81.5378 6.37313 81.1093 6.32273 80.5297 6.29753H79.8492V5.23905V4.18056H79.9248L82.9869 3.99155ZM98.0824 13.1399C100.351 12.8626 102.405 13.4927 104.244 15.03C104.421 15.1812 104.584 15.3324 104.736 15.4837C105.114 15.8617 105.341 16.1137 105.416 16.2397C107.054 18.3315 107.672 20.6753 107.269 23.2711C107.243 23.3971 107.218 23.5231 107.193 23.6491C106.739 25.9929 105.492 27.8074 103.45 29.0927C102.694 29.5716 101.875 29.9244 100.993 30.1512C100.414 30.3024 99.7583 30.378 99.0275 30.378C98.2714 30.378 97.6035 30.3024 97.0239 30.1512C94.6549 29.5464 92.8782 28.1855 91.6937 26.0685C90.988 24.7832 90.6352 23.3971 90.6352 21.9102C90.6352 20.0704 91.1266 18.4197 92.1095 16.958C93.5712 14.715 95.5622 13.4423 98.0824 13.1399ZM99.6323 14.8788C98.221 14.6772 97.0365 15.03 96.0788 15.9373C95.3228 16.6177 94.8943 17.7644 94.7935 19.3774C94.7683 19.4782 94.7557 19.5916 94.7557 19.7176C94.6549 21.0029 94.6675 22.515 94.7935 24.2539C94.8943 25.1864 95.0707 25.8921 95.3228 26.3709C95.852 27.5302 96.8223 28.2233 98.2336 28.4501C98.7124 28.5509 99.2039 28.5635 99.7079 28.4879C101.119 28.2611 102.115 27.5554 102.694 26.3709C102.946 25.8921 103.123 25.1864 103.224 24.2539C103.35 23.0947 103.362 21.6455 103.261 19.9066C103.261 19.831 103.261 19.768 103.261 19.7176C103.161 17.9787 102.757 16.7564 102.052 16.0507C102.026 16.0255 101.989 15.9877 101.938 15.9373C101.308 15.3324 100.54 14.9796 99.6323 14.8788ZM124.166 12.9131H125.112C125.742 13.0391 126.208 13.4171 126.51 14.0471C127.014 15.0552 126.939 15.8491 126.283 16.4287C126.031 16.6555 125.716 16.7816 125.338 16.8068C124.607 16.832 124.091 16.5169 123.788 15.8617C123.738 15.7357 123.7 15.5971 123.675 15.4459C123.625 15.1686 123.662 14.9922 123.788 14.9166L124.318 14.8788H124.355L124.885 14.841L124.847 14.7654C124.796 14.715 124.67 14.6898 124.469 14.6898C123.738 14.6898 123.02 14.9418 122.314 15.4459L122.163 15.5593L122.428 15.8995C122.806 16.4035 123.095 16.9706 123.297 17.6006C123.549 18.5583 123.549 19.4908 123.297 20.398C123.095 21.0281 122.818 21.5825 122.465 22.0614C122.087 22.5906 121.684 23.0064 121.256 23.3089C119.592 24.5942 117.664 25.0226 115.472 24.5942C114.817 24.4682 114.186 24.2665 113.582 23.9893L113.166 23.7625L113.052 24.0271C112.775 24.5564 112.737 25.136 112.939 25.7661C113.141 26.3457 113.519 26.7363 114.073 26.938C114.199 26.9884 115.182 27.0262 117.022 27.0514C119.139 27.0766 120.512 27.1522 121.142 27.2782C122.68 27.505 123.877 28.0342 124.733 28.8659C125.691 29.748 126.208 30.9451 126.283 32.4572C126.309 33.3897 126.019 34.2339 125.414 34.99C124.708 35.8721 123.637 36.5777 122.201 37.107C120.008 37.8882 117.677 38.0268 115.207 37.5228C115.031 37.4976 114.854 37.4598 114.678 37.4094C113.972 37.233 113.292 36.9936 112.637 36.6911C110.394 35.557 109.36 34.1205 109.537 32.3816C109.562 32.306 109.574 32.2304 109.574 32.1548C109.625 31.8775 109.751 31.5247 109.953 31.0963C110.331 30.315 110.923 29.6976 111.729 29.2439L111.994 29.0927L111.729 28.7903C110.746 27.5302 110.482 26.0811 110.935 24.443C111.187 23.8129 111.414 23.3467 111.616 23.0443C111.717 22.893 111.78 22.8048 111.805 22.7796C111.805 22.7544 111.754 22.6662 111.654 22.515C111.15 22.011 110.746 21.3053 110.444 20.398C110.116 19.1631 110.23 17.9534 110.784 16.769C111.112 16.1641 111.465 15.6727 111.843 15.2946C113.128 13.9589 114.804 13.2911 116.87 13.2911C118.257 13.2911 119.504 13.6187 120.613 14.274C120.764 14.3748 120.852 14.4252 120.878 14.4252L121.142 14.1984C121.999 13.4927 123.007 13.0643 124.166 12.9131ZM117.438 15.1434C116.152 14.967 115.195 15.2694 114.564 16.0507C114.489 16.1515 114.426 16.2523 114.375 16.3531C114.174 16.7816 114.073 17.6636 114.073 18.9993C114.073 20.3602 114.174 21.2423 114.375 21.6455C114.678 22.3512 115.321 22.767 116.303 22.893C117.589 23.0695 118.546 22.767 119.176 21.9858C119.252 21.885 119.315 21.7716 119.365 21.6455C119.592 21.1919 119.706 20.3098 119.706 18.9993C119.706 17.714 119.592 16.832 119.365 16.3531C119.038 15.6727 118.395 15.2694 117.438 15.1434ZM119.441 30.2268C119.239 30.2016 118.32 30.189 116.681 30.189C115.043 30.189 114.073 30.2646 113.771 30.4158C113.342 30.6427 113.002 30.9955 112.75 31.4743C112.574 31.8271 112.485 32.2304 112.485 32.684C112.485 33.0116 112.511 33.2385 112.561 33.3645C112.889 34.2717 113.745 34.99 115.132 35.5192C115.963 35.7965 116.896 35.9351 117.929 35.9351C118.937 35.9351 119.87 35.7965 120.726 35.5192C122.037 35.0404 122.881 34.3221 123.259 33.3645C123.385 32.9864 123.398 32.5832 123.297 32.1548C122.894 31.0207 121.608 30.378 119.441 30.2268ZM131.689 4.78541C132.571 4.58379 133.34 4.79801 133.995 5.42806C134.474 5.9573 134.713 6.53695 134.713 7.167C134.713 7.57023 134.625 7.94826 134.449 8.30109C133.995 9.15796 133.252 9.61159 132.218 9.66199C131.261 9.66199 130.543 9.23356 130.064 8.37669C129.862 7.99866 129.761 7.59543 129.761 7.167C129.761 6.78897 129.849 6.42354 130.026 6.07071C130.354 5.36506 130.908 4.93662 131.689 4.78541ZM131.425 13.5179C133.542 13.3667 134.55 13.2911 134.449 13.2911H134.562V20.4358C134.562 25.199 134.587 27.6058 134.638 27.6562C134.713 27.7318 134.776 27.7696 134.827 27.7696C134.978 27.8452 135.533 27.883 136.49 27.883H137.208V28.9415V30H136.906L134.751 29.9244C133.491 29.8992 132.193 29.8992 130.858 29.9244C129.32 29.9748 128.539 30 128.514 30H128.174V28.9415V27.883H128.967C130.278 27.883 130.984 27.7948 131.084 27.6184C131.11 27.5932 131.122 25.8543 131.122 22.4016C131.122 18.7725 131.072 16.832 130.971 16.5799C130.895 16.3531 130.744 16.1893 130.517 16.0885C130.165 15.9121 129.572 15.8239 128.741 15.8239H128.325V14.7654V13.7069H128.4L131.425 13.5179ZM138.506 14.7654V13.7069H138.771L140.774 13.7825C141.933 13.8077 143.206 13.8077 144.592 13.7825L146.974 13.7069H147.276V14.7654V15.8239L146.86 15.8617C146.659 15.8617 146.445 15.8995 146.218 15.9751C146.041 16.0255 145.953 16.0885 145.953 16.1641C145.953 16.2649 146.318 16.8194 147.049 17.8274L148.146 19.3774C148.196 19.3774 148.473 19.0119 148.977 18.2811C149.633 17.4242 149.948 16.8698 149.922 16.6177C149.847 16.1893 149.582 15.9373 149.129 15.8617L148.902 15.8239V14.7654V13.7069H149.166L151.321 13.7825C153.69 13.8329 155.429 13.8077 156.538 13.7069H156.803V14.7654V15.8239H156.462C155.983 15.8239 155.391 15.8743 154.686 15.9751C153.577 16.1767 152.783 16.5295 152.304 17.0336C152.128 17.21 151.598 17.9156 150.716 19.1505L149.318 21.0407L149.507 21.3431L153.929 27.5806C154.03 27.6814 154.144 27.7318 154.27 27.7318C154.497 27.8326 155.253 27.883 156.538 27.883H157.445V28.9415V30H157.181C155.971 29.8992 154.03 29.874 151.359 29.9244L148.977 30H148.637V28.9415V27.883H148.94C149.62 27.8326 149.985 27.7192 150.036 27.5428C150.036 27.5176 149.595 26.875 148.713 25.6149C147.856 24.4052 147.39 23.8003 147.314 23.8003L145.273 26.5977C145.147 26.8245 145.147 27.0766 145.273 27.3538C145.424 27.6814 145.714 27.8578 146.142 27.883H146.218V28.9415V30H145.915L143.76 29.9244C142.526 29.8992 141.392 29.8992 140.358 29.9244C139.174 29.9748 138.569 30 138.544 30H138.317V28.9415V27.883H138.96C140.95 27.8074 142.261 27.379 142.891 26.5977C142.941 26.5221 143.508 25.7535 144.592 24.2917C145.651 22.8552 146.18 22.1244 146.18 22.0992L144.101 19.0749C142.715 17.1092 141.933 16.0759 141.757 15.9751C141.707 15.9499 141.581 15.9247 141.379 15.8995L139.791 15.8239H138.506V14.7654Z" fill="#035E89"/>
<ellipse cx="98.7602" cy="21.7365" rx="5.19791" ry="7.5606" fill="#035E89"/>
</svg>
